<?xml version="1.0" encoding="utf-8"?>
<!-- Generator: Adobe Illustrator 16.0.0, SVG Export Plug-In . SVG Version: 6.00 Build 0)  -->
<!DOCTYPE svg PUBLIC "-//W3C//DTD SVG 1.1//EN" "http://www.w3.org/Graphics/SVG/1.1/DTD/svg11.dtd">
<svg version="1.1" id="Layer_1" xmlns="http://www.w3.org/2000/svg" xmlns:xlink="http://www.w3.org/1999/xlink" x="0px" y="0px"
	 width="50px" height="100px" viewBox="-2.5 -50 50 100" enable-background="new -2.5 -50 50 100" xml:space="preserve">
<g>
	<g id="Group" transform="translate(1 1)">
		<g id="Regular" transform="translate(0 0.9016393)">
			<g id="Shape">
				<path fill="#FFFFFF" d="M12.469,27.551c-0.552,0-1-0.447-1-1v-1.525c0-0.553,0.448-1,1-1s1,0.447,1,1v1.525
					C13.469,27.103,13.021,27.551,12.469,27.551z"/>
			</g>
			<g id="Shape_1_">
				<path fill="#FFFFFF" d="M30.67,27.551c-0.553,0-1-0.447-1-1v-1.525c0-0.553,0.447-1,1-1s1,0.447,1,1v1.525
					C31.67,27.103,31.223,27.551,30.67,27.551z"/>
			</g>
			<g id="Shape_2_">
				<path fill="#FFFFFF" d="M39.773,22.975c-0.52,0-0.946-0.396-0.995-0.903c-0.708-0.879-6.568-2.147-17.206-2.147
					c-10.639,0-16.499,1.268-17.206,2.147c-0.049,0.507-0.476,0.903-0.996,0.903c-0.552,0-1-0.448-1-1v-3.05
					c0-5.241,10.344-7.101,19.202-7.101c8.857,0,19.201,1.86,19.201,7.101v3.05C40.773,22.527,40.326,22.975,39.773,22.975z
					 M21.572,13.823c-9.646,0-17.202,2.241-17.202,5.101v0.927c3.723-1.631,11.827-1.927,17.202-1.927
					c5.374,0,13.478,0.295,17.201,1.927v-0.927C38.773,16.064,31.218,13.823,21.572,13.823z"/>
			</g>
			<g id="Shape_3_">
				<path fill="#FFFFFF" d="M40.613,24.618c-0.187,0-0.375-0.052-0.544-0.161c-0.463-0.301-0.595-0.92-0.294-1.384
					c1.389-2.138,2.092-4.62,2.031-7.176c0-3.711-4.404-9.526-11.52-12.492c-0.51-0.212-0.751-0.798-0.538-1.308
					s0.801-0.75,1.308-0.538c7.269,3.029,12.75,9.184,12.75,14.314c0.069,2.937-0.744,5.812-2.354,8.289
					C41.262,24.458,40.94,24.618,40.613,24.618z"/>
			</g>
			<g id="Shape_4_">
				<path fill="#FFFFFF" d="M2.19,24.738c-0.355,0-0.699-0.189-0.88-0.523c-1.388-2.563-2.07-5.458-1.973-8.375
					c0-3.784,5.204-10.485,12.672-13.996c0.498-0.237,1.096-0.021,1.33,0.479c0.235,0.5,0.021,1.095-0.479,1.33
					C5.826,6.961,1.337,13.1,1.337,15.874c-0.086,2.595,0.513,5.138,1.732,7.388c0.263,0.485,0.083,1.093-0.403,1.355
					C2.515,24.699,2.351,24.738,2.19,24.738z"/>
			</g>
			<g id="Shape_5_">
				<path fill="#FFFFFF" d="M26.119,7.722c-0.448,0-0.856-0.304-0.97-0.759l-1.088-4.379l-1.782,1.792
					c-0.377,0.378-1.043,0.378-1.418,0l-1.782-1.792L17.99,6.964c-0.134,0.536-0.679,0.861-1.212,0.729
					c-0.536-0.133-0.862-0.676-0.729-1.212l1.517-6.101c0.087-0.351,0.356-0.626,0.705-0.723c0.347-0.098,0.721,0.002,0.975,0.259
					l2.325,2.338l2.325-2.338c0.255-0.255,0.629-0.354,0.976-0.259c0.348,0.096,0.617,0.372,0.704,0.723l1.517,6.101
					c0.133,0.536-0.193,1.079-0.729,1.212C26.28,7.713,26.199,7.722,26.119,7.722z"/>
			</g>
			<g id="Shape_6_">
				<path fill="#FFFFFF" d="M15.207,39.651L15.207,39.651c-0.542,0-1.067-0.018-1.556-0.045c-0.613-0.034-1.662-0.446-2.042-1.438
					c-0.363-0.95,0.003-2.007,1.089-3.143c1.566-3.004,4.817-4.792,8.732-4.792c3.965,0,7.481,1.875,9.014,4.791
					c1.095,1.144,1.466,2.198,1.103,3.136c-0.4,1.036-1.563,1.422-2.062,1.447c-0.481,0.026-1.005,0.044-1.544,0.044
					c-2.848,0-4.984-0.472-6.37-1.402C20.186,39.18,18.051,39.651,15.207,39.651z M21.431,32.233c-3.201,0-5.823,1.431-7.014,3.826
					c-0.048,0.096-0.111,0.184-0.187,0.26c-0.781,0.785-0.752,1.134-0.752,1.137c0.028,0.05,0.199,0.142,0.299,0.155
					c0.439,0.024,0.927,0.04,1.43,0.04c2.753,0,4.762-0.495,5.656-1.394c0.188-0.188,0.443-0.295,0.709-0.295c0,0,0,0,0,0
					c0.266,0,0.521,0.106,0.709,0.295c0.892,0.898,2.902,1.394,5.66,1.394c0.501,0,0.986-0.017,1.439-0.041
					c0.07-0.019,0.266-0.118,0.305-0.179l0,0c-0.006,0-0.008-0.344-0.771-1.112c-0.076-0.076-0.139-0.164-0.187-0.26
					C27.572,33.735,24.708,32.233,21.431,32.233z"/>
			</g>
			<g id="Shape_7_">
				<path fill="#FFFFFF" d="M21.573,47.368c-9.624,0-17.825-7.336-19.034-16.854c-1.827-0.386-3.202-2.016-3.202-3.963
					c0-1.887,1.292-3.477,3.034-3.924v-0.651c0-0.552,0.448-1,1-1s1,0.448,1,1V23.5c0,0.552-0.448,1-1,1
					c-1.122,0-2.034,0.92-2.034,2.051c0,1.102,0.867,2.003,1.949,2.048c0.031-0.005,0.061-0.009,0.086-0.011
					c0.542-0.041,1.026,0.366,1.072,0.915c0.73,8.896,8.254,15.865,17.129,15.865s16.399-6.969,17.128-15.865
					c0.043-0.519,0.477-0.918,0.997-0.918c0.048,0,0.104,0.005,0.16,0.014c1.082-0.045,1.948-0.946,1.948-2.048
					c0-1.131-0.912-2.051-2.033-2.051c-0.553,0-1-0.447-1-1v-1.525c0-0.552,0.447-1,1-1s1,0.448,1,1v0.651
					c1.742,0.448,3.033,2.038,3.033,3.924c0,1.946-1.375,3.576-3.2,3.963C39.398,40.031,31.197,47.368,21.573,47.368z"/>
			</g>
		</g>
	</g>
</g>
<g>
	<g id="Group_1_" transform="translate(1 1)">
		<g id="Regular_1_" transform="translate(0 0.9016393)">
			<g id="Shape_15_">
				<path fill="#609BD3" d="M12.469-22.449c-0.552,0-1-0.447-1-1v-1.525c0-0.553,0.448-1,1-1s1,0.447,1,1v1.525
					C13.469-22.896,13.021-22.449,12.469-22.449z"/>
			</g>
			<g id="Shape_14_">
				<path fill="#609BD3" d="M30.67-22.449c-0.553,0-1-0.447-1-1v-1.525c0-0.553,0.447-1,1-1s1,0.447,1,1v1.525
					C31.67-22.896,31.223-22.449,30.67-22.449z"/>
			</g>
			<g id="Shape_13_">
				<path fill="#609BD3" d="M39.773-27.025c-0.52,0-0.946-0.396-0.995-0.903c-0.708-0.879-6.568-2.147-17.206-2.147
					c-10.639,0-16.499,1.268-17.206,2.147c-0.049,0.507-0.476,0.903-0.996,0.903c-0.552,0-1-0.448-1-1v-3.05
					c0-5.241,10.344-7.101,19.202-7.101c8.857,0,19.201,1.86,19.201,7.101v3.05C40.773-27.472,40.326-27.025,39.773-27.025z
					 M21.572-36.176c-9.646,0-17.202,2.241-17.202,5.101v0.927c3.723-1.631,11.827-1.927,17.202-1.927
					c5.374,0,13.478,0.295,17.201,1.927v-0.927C38.773-33.935,31.218-36.176,21.572-36.176z"/>
			</g>
			<g id="Shape_12_">
				<path fill="#609BD3" d="M40.613-25.382c-0.187,0-0.375-0.052-0.544-0.161c-0.463-0.301-0.595-0.92-0.294-1.384
					c1.389-2.138,2.092-4.62,2.031-7.176c0-3.711-4.404-9.526-11.52-12.492c-0.51-0.212-0.751-0.798-0.538-1.308
					s0.801-0.75,1.308-0.538c7.269,3.029,12.75,9.184,12.75,14.314c0.069,2.937-0.744,5.812-2.354,8.289
					C41.262-25.542,40.94-25.382,40.613-25.382z"/>
			</g>
			<g id="Shape_11_">
				<path fill="#609BD3" d="M2.19-25.262c-0.355,0-0.699-0.189-0.88-0.523c-1.388-2.563-2.07-5.458-1.973-8.375
					c0-3.784,5.204-10.485,12.672-13.996c0.498-0.237,1.096-0.021,1.33,0.479c0.235,0.5,0.021,1.095-0.479,1.33
					c-7.034,3.308-11.523,9.447-11.523,12.22c-0.086,2.595,0.513,5.138,1.732,7.388c0.263,0.485,0.083,1.093-0.403,1.355
					C2.515-25.301,2.351-25.262,2.19-25.262z"/>
			</g>
			<g id="Shape_10_">
				<path fill="#609BD3" d="M26.119-42.277c-0.448,0-0.856-0.304-0.97-0.759l-1.088-4.379l-1.782,1.792
					c-0.377,0.378-1.043,0.378-1.418,0l-1.782-1.792l-1.088,4.379c-0.134,0.536-0.679,0.861-1.212,0.729
					c-0.536-0.133-0.862-0.676-0.729-1.212l1.517-6.101c0.087-0.351,0.356-0.626,0.705-0.723c0.347-0.098,0.721,0.002,0.975,0.259
					l2.325,2.338l2.325-2.338c0.255-0.255,0.629-0.354,0.976-0.259c0.348,0.096,0.617,0.372,0.704,0.723l1.517,6.101
					c0.133,0.536-0.193,1.079-0.729,1.212C26.28-42.286,26.199-42.277,26.119-42.277z"/>
			</g>
			<g id="Shape_9_">
				<path fill="#609BD3" d="M15.207-10.348L15.207-10.348c-0.542,0-1.067-0.018-1.556-0.045c-0.613-0.034-1.662-0.446-2.042-1.438
					c-0.363-0.95,0.003-2.007,1.089-3.143c1.566-3.004,4.817-4.792,8.732-4.792c3.965,0,7.481,1.875,9.014,4.791
					c1.095,1.144,1.466,2.198,1.103,3.136c-0.4,1.036-1.563,1.422-2.062,1.447c-0.481,0.026-1.005,0.044-1.544,0.044
					c-2.848,0-4.984-0.472-6.37-1.402C20.186-10.819,18.051-10.348,15.207-10.348z M21.431-17.766c-3.201,0-5.823,1.431-7.014,3.826
					c-0.048,0.096-0.111,0.184-0.187,0.26c-0.781,0.785-0.752,1.134-0.752,1.137c0.028,0.05,0.199,0.142,0.299,0.155
					c0.439,0.024,0.927,0.04,1.43,0.04c2.753,0,4.762-0.495,5.656-1.394c0.188-0.188,0.443-0.295,0.709-0.295c0,0,0,0,0,0
					c0.266,0,0.521,0.106,0.709,0.295c0.892,0.898,2.902,1.394,5.66,1.394c0.501,0,0.986-0.017,1.439-0.041
					c0.07-0.019,0.266-0.118,0.305-0.179l0,0c-0.006,0-0.008-0.344-0.771-1.112c-0.076-0.076-0.139-0.164-0.187-0.26
					C27.572-16.264,24.708-17.766,21.431-17.766z"/>
			</g>
			<g id="Shape_8_">
				<path fill="#609BD3" d="M21.573-2.632c-9.624,0-17.825-7.336-19.034-16.854c-1.827-0.386-3.202-2.016-3.202-3.963
					c0-1.887,1.292-3.477,3.034-3.924v-0.651c0-0.552,0.448-1,1-1s1,0.448,1,1v1.525c0,0.552-0.448,1-1,1
					c-1.122,0-2.034,0.92-2.034,2.051c0,1.102,0.867,2.003,1.949,2.048c0.031-0.005,0.061-0.009,0.086-0.011
					c0.542-0.041,1.026,0.366,1.072,0.915C5.174-11.6,12.698-4.632,21.573-4.632S37.972-11.6,38.701-20.497
					c0.043-0.519,0.477-0.918,0.997-0.918c0.048,0,0.104,0.005,0.16,0.014c1.082-0.045,1.948-0.946,1.948-2.048
					c0-1.131-0.912-2.051-2.033-2.051c-0.553,0-1-0.447-1-1v-1.525c0-0.552,0.447-1,1-1s1,0.448,1,1v0.651
					c1.742,0.448,3.033,2.038,3.033,3.924c0,1.946-1.375,3.576-3.2,3.963C39.398-9.969,31.197-2.632,21.573-2.632z"/>
			</g>
		</g>
	</g>
</g>
</svg>
