<?xml version="1.0" encoding="utf-8"?>
<!-- Generator: Adobe Illustrator 16.0.0, SVG Export Plug-In . SVG Version: 6.00 Build 0)  -->
<!DOCTYPE svg PUBLIC "-//W3C//DTD SVG 1.1//EN" "http://www.w3.org/Graphics/SVG/1.1/DTD/svg11.dtd">
<svg version="1.1" id="Layer_1" xmlns="http://www.w3.org/2000/svg" xmlns:xlink="http://www.w3.org/1999/xlink" x="0px" y="0px"
	 width="29.004px" height="29.004px" viewBox="0 0 29.004 29.004" enable-background="new 0 0 29.004 29.004" xml:space="preserve">
<g id="Group" transform="translate(1 1)">
	<g id="Regular">
		<g id="Shape_2_">
			<path fill="#619BD3" d="M13.501,25.502L1.997,13.307c-2.072-2.104-2.586-5.32-1.275-7.982l0,0C1.7,3.336,3.559,1.947,5.719,1.591
				c2.16-0.356,4.356,0.365,5.904,1.936l1.878,1.909l1.879-1.909c1.548-1.571,3.744-2.292,5.904-1.936s4.021,1.745,4.999,3.733l0,0
				c1.311,2.662,0.797,5.878-1.275,7.982L13.501,25.502z"/>
			<path fill="#619BD3" d="M13.501,26.502L13.501,26.502c-0.275,0-0.538-0.113-0.728-0.313L1.269,13.993
				c-2.359-2.396-2.946-6.063-1.445-9.11c1.118-2.271,3.261-3.871,5.732-4.278c2.479-0.406,5.008,0.423,6.78,2.222l1.165,1.185
				l1.166-1.185c1.771-1.799,4.302-2.63,6.779-2.222c2.473,0.408,4.616,2.007,5.734,4.278c1.5,3.048,0.913,6.715-1.46,9.126
				l-11.492,12.18C14.039,26.389,13.776,26.502,13.501,26.502z M6.809,2.502c-0.309,0-0.621,0.025-0.927,0.076
				C4.045,2.881,2.452,4.072,1.619,5.766c-1.126,2.286-0.688,5.034,1.09,6.84l10.792,11.439L24.28,12.621
				c1.792-1.821,2.23-4.569,1.105-6.854c-0.833-1.694-2.428-2.886-4.264-3.188c-1.846-0.307-3.714,0.316-5.029,1.651l-1.879,1.909
				c-0.188,0.19-0.445,0.298-0.713,0.298l0,0c-0.269,0-0.524-0.107-0.713-0.299L10.91,4.229C9.813,3.115,8.356,2.502,6.809,2.502z"
				/>
		</g>
	</g>
</g>
</svg>
