<?xml version="1.0" encoding="utf-8"?>
<!-- Generator: Adobe Illustrator 16.0.0, SVG Export Plug-In . SVG Version: 6.00 Build 0)  -->
<!DOCTYPE svg PUBLIC "-//W3C//DTD SVG 1.1//EN" "http://www.w3.org/Graphics/SVG/1.1/DTD/svg11.dtd">
<svg version="1.1" id="Layer_1" xmlns="http://www.w3.org/2000/svg" xmlns:xlink="http://www.w3.org/1999/xlink" x="0px" y="0px"
	 width="50px" height="100px" viewBox="0 0 50 100" enable-background="new 0 0 50 100" xml:space="preserve">
<g id="Regular" transform="translate(1.25 1.25)">
	<g id="Shape">
		<path fill="#FFFFFF" d="M23.155,73.75c-6.893,0-12.5-5.608-12.5-12.5V50.536c0-0.986,0.799-1.786,1.786-1.786h21.429
			c0.985,0,1.785,0.799,1.785,1.786V61.25C35.654,68.142,30.048,73.75,23.155,73.75z M14.226,52.321v8.929
			c0,4.923,4.005,8.929,8.929,8.929s8.928-4.005,8.928-8.929v-8.929H14.226z"/>
	</g>
	<g id="Shape_1_">
		<path fill="#FFFFFF" d="M43.393,98.75c-0.985,0-1.785-0.8-1.785-1.786c0-10.175-8.277-18.452-18.453-18.452
			c-10.175,0-18.453,8.277-18.453,18.452c0,0.986-0.799,1.786-1.786,1.786c-0.986,0-1.786-0.8-1.786-1.786
			c0-12.144,9.88-22.023,22.024-22.023s22.024,9.88,22.024,22.023C45.179,97.95,44.379,98.75,43.393,98.75z"/>
	</g>
	<g id="Shape_2_">
		<path fill="#FFFFFF" d="M46.964,52.321H0.536c-0.986,0-1.786-0.799-1.786-1.786s0.799-1.786,1.786-1.786h46.428
			c0.986,0,1.786,0.799,1.786,1.786S47.95,52.321,46.964,52.321z"/>
	</g>
	<g id="Shape_3_">
		<path fill="#FFFFFF" d="M33.869,61.845H12.44c-0.986,0-1.786-0.799-1.786-1.786s0.799-1.786,1.786-1.786h21.429
			c0.985,0,1.785,0.799,1.785,1.786S34.854,61.845,33.869,61.845z"/>
	</g>
	<g id="Shape_4_">
		<path fill="#FFFFFF" d="M4.107,67.798c-0.986,0-1.786-0.799-1.786-1.786V50.536c0-0.986,0.799-1.786,1.786-1.786
			c0.987,0,1.786,0.799,1.786,1.786v15.476C5.893,66.999,5.094,67.798,4.107,67.798z"/>
	</g>
	<g id="Shape_5_">
		<path fill="#FFFFFF" d="M23.75,89.227c-0.403,0-0.806-0.137-1.135-0.407l-10.119-8.333c-0.761-0.628-0.87-1.754-0.243-2.514
			c0.626-0.762,1.751-0.87,2.513-0.244l8.984,7.398l8.984-7.398c0.761-0.624,1.886-0.518,2.514,0.244
			c0.626,0.76,0.518,1.886-0.244,2.514l-10.119,8.333C24.556,89.09,24.152,89.227,23.75,89.227z"/>
	</g>
</g>
<g id="Regular_1_" transform="translate(1.25 1.25)">
	<g id="Shape_11_">
		<path fill="#619BD3" d="M23.155,23.75c-6.893,0-12.5-5.608-12.5-12.5V0.536c0-0.986,0.799-1.786,1.786-1.786h21.429
			c0.985,0,1.785,0.799,1.785,1.786V11.25C35.654,18.142,30.048,23.75,23.155,23.75z M14.226,2.321v8.929
			c0,4.923,4.005,8.929,8.929,8.929s8.928-4.005,8.928-8.929V2.321H14.226z"/>
	</g>
	<g id="Shape_10_">
		<path fill="#619BD3" d="M43.393,48.75c-0.985,0-1.785-0.8-1.785-1.786c0-10.175-8.277-18.452-18.453-18.452
			c-10.175,0-18.453,8.277-18.453,18.452c0,0.986-0.799,1.786-1.786,1.786c-0.986,0-1.786-0.8-1.786-1.786
			c0-12.144,9.88-22.023,22.024-22.023s22.024,9.88,22.024,22.023C45.179,47.95,44.379,48.75,43.393,48.75z"/>
	</g>
	<g id="Shape_9_">
		<path fill="#619BD3" d="M46.964,2.321H0.536c-0.986,0-1.786-0.799-1.786-1.786S-0.451-1.25,0.536-1.25h46.428
			c0.986,0,1.786,0.799,1.786,1.786S47.95,2.321,46.964,2.321z"/>
	</g>
	<g id="Shape_8_">
		<path fill="#619BD3" d="M33.869,11.845H12.44c-0.986,0-1.786-0.799-1.786-1.786s0.799-1.786,1.786-1.786h21.429
			c0.985,0,1.785,0.799,1.785,1.786S34.854,11.845,33.869,11.845z"/>
	</g>
	<g id="Shape_7_">
		<path fill="#619BD3" d="M4.107,17.798c-0.986,0-1.786-0.799-1.786-1.786V0.536c0-0.986,0.799-1.786,1.786-1.786
			c0.987,0,1.786,0.799,1.786,1.786v15.476C5.893,16.999,5.094,17.798,4.107,17.798z"/>
	</g>
	<g id="Shape_6_">
		<path fill="#619BD3" d="M23.75,39.227c-0.403,0-0.806-0.137-1.135-0.407l-10.119-8.333c-0.761-0.628-0.87-1.754-0.243-2.514
			c0.626-0.762,1.751-0.87,2.513-0.244l8.984,7.398l8.984-7.398c0.761-0.624,1.886-0.518,2.514,0.244
			c0.626,0.76,0.518,1.886-0.244,2.514l-10.119,8.333C24.556,39.09,24.152,39.227,23.75,39.227z"/>
	</g>
</g>
</svg>
