<?xml version="1.0" encoding="utf-8"?>
<!-- Generator: Adobe Illustrator 16.0.0, SVG Export Plug-In . SVG Version: 6.00 Build 0)  -->
<!DOCTYPE svg PUBLIC "-//W3C//DTD SVG 1.1//EN" "http://www.w3.org/Graphics/SVG/1.1/DTD/svg11.dtd">
<svg version="1.1" id="Layer_1" xmlns="http://www.w3.org/2000/svg" xmlns:xlink="http://www.w3.org/1999/xlink" x="0px" y="0px"
	 width="50px" height="100px" viewBox="-2.5 -106 50 100" enable-background="new -2.5 -106 50 100" xml:space="preserve">
<g id="Group" transform="translate(1 1)">
	<g id="Regular">
		<g id="Oval">
			<path fill="#FFFFFF" d="M11.208-24.348c-2.91,0-5.278-2.367-5.278-5.277s2.368-5.278,5.278-5.278s5.278,2.368,5.278,5.278
				S14.118-24.348,11.208-24.348z M11.208-32.903c-1.808,0-3.278,1.47-3.278,3.278c0,1.807,1.47,3.277,3.278,3.277
				s3.278-1.47,3.278-3.277C14.486-31.433,13.016-32.903,11.208-32.903z"/>
		</g>
		<g id="Shape">
			<path fill="#FFFFFF" d="M17.625-15.792c-0.552,0-1-0.448-1-1c0-2.987-2.43-5.417-5.417-5.417s-5.417,2.43-5.417,5.417
				c0,0.552-0.448,1-1,1s-1-0.448-1-1c0-4.09,3.327-7.417,7.417-7.417s7.417,3.327,7.417,7.417
				C18.625-16.24,18.177-15.792,17.625-15.792z"/>
		</g>
		<g id="Shape_1_">
			<path fill="#FFFFFF" d="M3.718-10.445c-1.122,0-2.177-0.437-2.972-1.231c-0.795-0.794-1.233-1.852-1.233-2.976v-23.528
				c0-1.125,0.438-2.182,1.233-2.977c0.794-0.794,1.851-1.232,2.975-1.232c0.001,0,0.001,0,0.002,0H9.07c0.552,0,1,0.448,1,1
				s-0.448,1-1,1H3.723c0,0-0.001,0-0.001,0c-0.59,0-1.144,0.229-1.561,0.646c-0.417,0.417-0.647,0.972-0.647,1.562v23.528
				c0,0.582,0.236,1.15,0.647,1.561c0.417,0.417,0.97,0.694,1.562,0.646h14.972c1.217,0,2.208-0.99,2.208-2.207v-9.625
				c0-0.552,0.448-1,1-1c0.553,0,1,0.448,1,1v9.625c0,2.32-1.888,4.207-4.208,4.207H3.723C3.722-10.445,3.72-10.445,3.718-10.445z"
				/>
		</g>
		<g id="Shape_2_">
			<path fill="#FFFFFF" d="M28.985-27.556L28.985-27.556c-0.275,0-0.538-0.114-0.728-0.314L16.753-40.065
				c-2.359-2.395-2.946-6.062-1.445-9.11c1.118-2.271,3.261-3.871,5.732-4.278c2.481-0.407,5.008,0.424,6.78,2.222l1.165,1.185
				l1.166-1.185c1.771-1.798,4.301-2.629,6.779-2.222c2.473,0.408,4.616,2.007,5.734,4.279c1.5,3.047,0.913,6.714-1.46,9.125
				L29.713-27.87C29.523-27.669,29.261-27.556,28.985-27.556z M22.293-51.556c-0.309,0-0.621,0.025-0.927,0.076
				c-1.836,0.302-3.429,1.494-4.263,3.188c-1.126,2.286-0.688,5.034,1.09,6.839l10.792,11.44l10.779-11.424
				c1.792-1.821,2.23-4.569,1.105-6.854c-0.833-1.694-2.428-2.886-4.264-3.188c-1.844-0.306-3.714,0.316-5.029,1.651l-1.879,1.909
				c-0.188,0.191-0.445,0.298-0.713,0.298l0,0c-0.269,0-0.524-0.107-0.713-0.299l-1.878-1.909
				C25.298-50.942,23.841-51.556,22.293-51.556z"/>
		</g>
	</g>
</g>
<g id="Group_1_" transform="translate(1 1)">
	<g id="Regular_1_">
		<g id="Oval_1_">
			<path fill="#5A9CE2" d="M11.208-74.348c-2.91,0-5.278-2.367-5.278-5.277s2.368-5.278,5.278-5.278s5.278,2.368,5.278,5.278
				S14.118-74.348,11.208-74.348z M11.208-82.903c-1.808,0-3.278,1.47-3.278,3.278c0,1.807,1.47,3.277,3.278,3.277
				s3.278-1.47,3.278-3.277C14.486-81.433,13.016-82.903,11.208-82.903z"/>
		</g>
		<g id="Shape_5_">
			<path fill="#5A9CE2" d="M17.625-65.792c-0.552,0-1-0.448-1-1c0-2.987-2.43-5.417-5.417-5.417s-5.417,2.43-5.417,5.417
				c0,0.552-0.448,1-1,1s-1-0.448-1-1c0-4.09,3.327-7.417,7.417-7.417s7.417,3.327,7.417,7.417
				C18.625-66.24,18.177-65.792,17.625-65.792z"/>
		</g>
		<g id="Shape_4_">
			<path fill="#5A9CE2" d="M3.718-60.445c-1.122,0-2.177-0.437-2.972-1.231c-0.795-0.794-1.233-1.852-1.233-2.976v-23.528
				c0-1.125,0.438-2.182,1.233-2.977c0.794-0.794,1.851-1.232,2.975-1.232c0.001,0,0.001,0,0.002,0H9.07c0.552,0,1,0.448,1,1
				s-0.448,1-1,1H3.723c0,0-0.001,0-0.001,0c-0.59,0-1.144,0.229-1.561,0.646c-0.417,0.417-0.647,0.972-0.647,1.562v23.528
				c0,0.582,0.236,1.15,0.647,1.561c0.417,0.417,0.97,0.599,1.562,0.646h14.972c1.217,0,2.208-0.99,2.208-2.207v-9.625
				c0-0.552,0.448-1,1-1c0.553,0,1,0.448,1,1v9.625c0,2.32-1.888,4.207-4.208,4.207H3.723C3.722-60.445,3.72-60.445,3.718-60.445z"
				/>
		</g>
		<g id="Shape_3_">
			<path fill="#5A9CE2" d="M28.985-77.556L28.985-77.556c-0.275,0-0.538-0.114-0.728-0.314L16.753-90.065
				c-2.359-2.395-2.946-6.062-1.445-9.11c1.118-2.271,3.261-3.871,5.732-4.278c2.481-0.406,5.008,0.424,6.78,2.222l1.165,1.185
				l1.166-1.185c1.771-1.798,4.301-2.629,6.779-2.222c2.473,0.408,4.616,2.007,5.734,4.279c1.5,3.047,0.913,6.714-1.46,9.125
				L29.713-77.87C29.523-77.669,29.261-77.556,28.985-77.556z M22.293-101.556c-0.309,0-0.621,0.025-0.927,0.076
				c-1.836,0.302-3.429,1.494-4.263,3.188c-1.126,2.286-0.688,5.034,1.09,6.839l10.792,11.44l10.779-11.424
				c1.792-1.821,2.23-4.569,1.105-6.854c-0.833-1.694-2.428-2.886-4.264-3.188c-1.844-0.307-3.714,0.316-5.029,1.651l-1.879,1.909
				c-0.188,0.191-0.445,0.298-0.713,0.298l0,0c-0.269,0-0.524-0.107-0.713-0.299l-1.878-1.909
				C25.298-100.942,23.841-101.556,22.293-101.556z"/>
		</g>
	</g>
</g>
</svg>
