<?xml version="1.0" encoding="utf-8"?>
<!-- Generator: Adobe Illustrator 16.0.0, SVG Export Plug-In . SVG Version: 6.00 Build 0)  -->
<!DOCTYPE svg PUBLIC "-//W3C//DTD SVG 1.1//EN" "http://www.w3.org/Graphics/SVG/1.1/DTD/svg11.dtd">
<svg version="1.1" id="Layer_1" xmlns="http://www.w3.org/2000/svg" xmlns:xlink="http://www.w3.org/1999/xlink" x="0px" y="0px"
	 width="50px" height="100px" viewBox="-3 -56 50 100" enable-background="new -3 -56 50 100" xml:space="preserve">
<g id="Group" transform="translate(1.25 1.25)">
	<g id="Regular">
		<g id="Shape">
			<path fill="#FFFFFF" d="M13.795,39.312c-0.631,0-1.247-0.123-1.831-0.365c-1.868-0.773-3.053-2.65-2.949-4.669l0.13-2.529
				c0.033-0.644-0.21-1.274-0.667-1.731c-0.431-0.431-1.005-0.668-1.617-0.668l-0.117,0.003l-2.528,0.13
				c-2.08,0.119-3.891-1.081-4.665-2.952c-0.771-1.866-0.283-4.03,1.217-5.384l1.88-1.697c0.48-0.433,0.755-1.052,0.755-1.698
				s-0.275-1.265-0.754-1.698l-1.88-1.697c-1.491-1.357-1.975-3.515-1.206-5.374c0.771-1.865,2.605-3.06,4.644-2.954L6.859,6.16
				c0.603,0,1.193-0.245,1.62-0.672c0.458-0.459,0.701-1.093,0.666-1.74l-0.13-2.531c-0.101-2.019,1.086-3.893,2.953-4.665
				c1.835-0.759,4.055-0.254,5.384,1.217l1.696,1.873c0.868,0.962,2.532,0.961,3.397,0.002l1.698-1.882
				c1.333-1.47,3.549-1.965,5.381-1.207c1.862,0.773,3.047,2.645,2.947,4.658L32.34,3.744c-0.031,0.644,0.213,1.277,0.67,1.734
				c0.426,0.426,1.017,0.67,1.619,0.67l0.116-0.003l2.526-0.13c2.006-0.111,3.897,1.075,4.674,2.947
				c0.777,1.87,0.287,4.038-1.219,5.393l-1.879,1.696c-0.48,0.433-0.756,1.052-0.756,1.698s0.275,1.265,0.756,1.698l1.881,1.697
				c1.501,1.354,1.99,3.52,1.217,5.388c-0.775,1.872-2.637,3.069-4.67,2.948l-2.645-0.133c-0.603,0-1.192,0.244-1.617,0.67
				c-0.459,0.458-0.702,1.091-0.67,1.736l0.131,2.527c0.098,2.019-1.089,3.89-2.952,4.661c-1.831,0.758-4.05,0.257-5.38-1.213
				l-1.698-1.881c-0.867-0.962-2.53-0.959-3.395-0.001l-1.698,1.882C16.445,38.735,15.149,39.312,13.795,39.312z M6.86,26.849
				c1.279,0,2.481,0.497,3.384,1.4c0.956,0.955,1.465,2.277,1.397,3.627l-0.13,2.53c-0.05,0.965,0.517,1.861,1.409,2.231
				c0.88,0.363,1.94,0.122,2.574-0.582l1.698-1.882c0.906-1.004,2.201-1.58,3.553-1.58c1.351,0,2.647,0.576,3.553,1.58l1.698,1.881
				c0.633,0.699,1.69,0.941,2.569,0.578c0.891-0.368,1.457-1.263,1.41-2.226l-0.13-2.524c-0.069-1.353,0.44-2.676,1.398-3.632
				c0.959-0.96,2.268-1.471,3.628-1.396l2.649,0.133c0.927,0,1.756-0.555,2.112-1.412c0.369-0.893,0.136-1.928-0.582-2.574
				l-1.882-1.698c-1.004-0.907-1.58-2.202-1.58-3.554s0.576-2.647,1.58-3.554l1.881-1.698c0.721-0.648,0.955-1.683,0.584-2.577
				c-0.355-0.858-1.185-1.412-2.112-1.412l-0.122,0.003l-2.53,0.13c-1.383,0.064-2.669-0.436-3.631-1.397
				c-0.954-0.956-1.464-2.277-1.397-3.627l0.131-2.532c0.047-0.959-0.52-1.853-1.409-2.223c-0.876-0.363-1.934-0.125-2.569,0.576
				L24.3,1.319c-0.906,1.004-2.201,1.58-3.553,1.58c-1.353,0-2.648-0.576-3.554-1.58l-1.696-1.873
				C14.86-1.26,13.802-1.5,12.923-1.137c-0.892,0.369-1.459,1.264-1.411,2.228l0.13,2.527c0.072,1.351-0.436,2.678-1.394,3.637
				C9.299,8.206,7.964,8.716,6.612,8.654L3.985,8.521c-0.929,0-1.758,0.555-2.113,1.414c-0.368,0.888-0.137,1.92,0.575,2.566
				l1.876,1.694c1.003,0.906,1.579,2.201,1.579,3.554s-0.576,2.648-1.58,3.554l-1.879,1.697c-0.717,0.647-0.951,1.682-0.582,2.573
				c0.355,0.858,1.184,1.414,2.112,1.414l0.116-0.003l2.527-0.13C6.698,26.851,6.779,26.849,6.86,26.849z"/>
		</g>
		<g id="Oval">
			<path fill="#FFFFFF" d="M20.747,27.127c-5.17,0-9.376-4.206-9.376-9.377c0-5.17,4.206-9.377,9.376-9.377s9.376,4.207,9.376,9.377
				C30.123,22.921,25.917,27.127,20.747,27.127z M20.747,10.873c-3.792,0-6.876,3.085-6.876,6.877s3.085,6.877,6.876,6.877
				s6.876-3.085,6.876-6.877S24.538,10.873,20.747,10.873z"/>
		</g>
	</g>
</g>
<g id="Group_1_" transform="translate(1.25 1.25)">
	<g id="Regular_1_">
		<g id="Shape_1_">
			<path fill="#5B9DE3" d="M13.795-10.688c-0.631,0-1.247-0.123-1.831-0.365c-1.868-0.774-3.053-2.65-2.949-4.669l0.13-2.529
				c0.033-0.644-0.21-1.275-0.667-1.731c-0.431-0.431-1.005-0.668-1.617-0.668l-0.117,0.003l-2.528,0.13
				c-2.08,0.1-3.891-1.082-4.665-2.953c-0.771-1.866-0.283-4.03,1.217-5.384l1.88-1.697c0.48-0.433,0.755-1.052,0.755-1.698
				s-0.275-1.265-0.754-1.698l-1.88-1.697c-1.491-1.357-1.975-3.515-1.206-5.374c0.771-1.865,2.605-3.055,4.644-2.954l2.654,0.133
				c0.603,0,1.193-0.245,1.62-0.672c0.458-0.459,0.701-1.093,0.666-1.74l-0.13-2.531c-0.101-2.019,1.086-3.893,2.953-4.665
				c1.835-0.759,4.055-0.254,5.384,1.217l1.696,1.873c0.868,0.963,2.532,0.961,3.397,0.002l1.698-1.882
				c1.333-1.469,3.549-1.965,5.381-1.207c1.862,0.773,3.047,2.645,2.947,4.658l-0.131,2.531c-0.031,0.644,0.213,1.277,0.67,1.734
				c0.426,0.426,1.017,0.67,1.619,0.67l0.116-0.003l2.526-0.13c2.006-0.11,3.897,1.075,4.674,2.947
				c0.777,1.87,0.287,4.038-1.219,5.393l-1.879,1.696c-0.48,0.433-0.756,1.052-0.756,1.698s0.275,1.265,0.756,1.698l1.881,1.697
				c1.501,1.354,1.99,3.52,1.217,5.388c-0.775,1.872-2.637,3.055-4.67,2.949l-2.645-0.133c-0.603,0-1.192,0.244-1.617,0.67
				c-0.459,0.458-0.702,1.09-0.67,1.736l0.131,2.527c0.098,2.019-1.089,3.89-2.952,4.661c-1.831,0.757-4.05,0.257-5.38-1.212
				l-1.698-1.881c-0.867-0.961-2.529-0.96-3.395,0l-1.698,1.881C16.445-11.265,15.149-10.688,13.795-10.688z M6.86-23.151
				c1.279,0,2.481,0.497,3.384,1.399c0.956,0.956,1.465,2.278,1.397,3.627l-0.13,2.53c-0.05,0.965,0.517,1.861,1.409,2.231
				c0.88,0.365,1.94,0.122,2.574-0.582l1.698-1.881c0.906-1.004,2.201-1.581,3.553-1.581c1.352,0,2.647,0.576,3.554,1.581
				l1.698,1.88c0.633,0.701,1.69,0.941,2.569,0.578c0.891-0.368,1.457-1.263,1.41-2.226l-0.13-2.524
				c-0.069-1.353,0.44-2.676,1.398-3.631c0.959-0.961,2.268-1.463,3.628-1.396l2.649,0.133c0.927,0,1.756-0.555,2.112-1.412
				c0.369-0.893,0.136-1.927-0.582-2.575l-1.882-1.697c-1.004-0.907-1.58-2.202-1.58-3.554s0.576-2.647,1.58-3.554l1.881-1.698
				c0.721-0.648,0.955-1.683,0.584-2.577c-0.355-0.858-1.185-1.412-2.112-1.412l-0.122,0.003l-2.53,0.13
				c-1.383,0.06-2.669-0.435-3.631-1.397c-0.954-0.956-1.464-2.277-1.397-3.627l0.131-2.532c0.047-0.959-0.52-1.853-1.409-2.223
				c-0.876-0.362-1.934-0.125-2.569,0.576L24.3-48.681c-0.906,1.004-2.201,1.58-3.554,1.58s-2.647-0.576-3.553-1.58l-1.696-1.873
				c-0.637-0.706-1.695-0.947-2.574-0.583c-0.892,0.369-1.459,1.264-1.411,2.228l0.13,2.527c0.072,1.351-0.436,2.678-1.394,3.637
				c-0.949,0.951-2.284,1.461-3.636,1.399l-2.627-0.132c-0.929,0-1.758,0.555-2.113,1.414c-0.368,0.888-0.137,1.92,0.575,2.566
				l1.876,1.694c1.003,0.906,1.579,2.201,1.579,3.554s-0.576,2.648-1.58,3.554l-1.879,1.697c-0.717,0.647-0.951,1.681-0.582,2.573
				c0.355,0.859,1.184,1.414,2.112,1.414l0.116-0.003l2.527-0.13C6.698-23.149,6.779-23.151,6.86-23.151z"/>
		</g>
		<g id="Oval_1_">
			<path fill="#5B9DE3" d="M20.746-22.873c-5.17,0-9.376-4.207-9.376-9.377s4.206-9.377,9.376-9.377
				c5.171,0,9.377,4.207,9.377,9.377S25.917-22.873,20.746-22.873z M20.746-39.127c-3.792,0-6.876,3.085-6.876,6.877
				s3.084,6.877,6.876,6.877c3.792,0,6.877-3.085,6.877-6.877S24.538-39.127,20.746-39.127z"/>
		</g>
	</g>
</g>
</svg>
