<?xml version="1.0" encoding="utf-8"?>
<!-- Generator: Adobe Illustrator 16.0.0, SVG Export Plug-In . SVG Version: 6.00 Build 0)  -->
<!DOCTYPE svg PUBLIC "-//W3C//DTD SVG 1.1//EN" "http://www.w3.org/Graphics/SVG/1.1/DTD/svg11.dtd">
<svg version="1.1" id="Layer_1" xmlns="http://www.w3.org/2000/svg" xmlns:xlink="http://www.w3.org/1999/xlink" x="0px" y="0px"
	 width="35px" height="35px" viewBox="0 0 35 35" enable-background="new 0 0 35 35" xml:space="preserve">
<g>
	<g id="Oval">
		<path fill="#619BD3" d="M17.5,19.569c-2.91,0-5.278-2.367-5.278-5.277s2.368-5.277,5.278-5.277c2.911,0,5.278,2.367,5.278,5.277
			S20.41,19.569,17.5,19.569z M17.5,11.015c-1.808,0-3.278,1.47-3.278,3.277c0,1.807,1.47,3.277,3.278,3.277
			c1.807,0,3.278-1.471,3.278-3.277C20.777,12.484,19.307,11.015,17.5,11.015z"/>
	</g>
	<g id="Shape">
		<path fill="#619BD3" d="M23.916,28.125c-0.553,0-1-0.447-1-1c0-2.987-2.43-5.417-5.417-5.417s-5.417,2.43-5.417,5.417
			c0,0.553-0.448,1-1,1s-1-0.447-1-1c0-4.09,3.327-7.417,7.417-7.417c4.09,0,7.417,3.327,7.417,7.417
			C24.916,27.678,24.469,28.125,23.916,28.125z"/>
	</g>
	<g id="Shape_1_">
		<path fill="#619BD3" d="M10.01,33.472c-1.122,0-2.177-0.438-2.972-1.231s-1.233-1.851-1.233-2.976V5.736
			c0-1.125,0.438-2.183,1.233-2.977c0.794-0.795,1.851-1.232,2.975-1.232c0.001,0,0.001,0,0.002,0h5.347c0.552,0,1,0.448,1,1
			c0,0.553-0.448,1-1,1h-5.347c0,0-0.001,0-0.001,0c-0.59,0-1.144,0.229-1.561,0.646C8.035,4.591,7.805,5.146,7.805,5.736v23.528
			c0,0.581,0.236,1.15,0.647,1.562c0.417,0.416,0.97,0.646,1.559,0.646c0.001,0,0.002,0,0.003,0h14.973
			c1.217,0,2.207-0.99,2.207-2.207V19.64c0-0.553,0.447-1,1-1s1,0.447,1,1v9.625c0,2.319-1.887,4.207-4.207,4.207H10.015
			C10.013,33.472,10.011,33.472,10.01,33.472z"/>
	</g>
</g>
</svg>
